<?xml version="1.0" encoding="UTF-8" standalone="no"?>
<svg
   xmlns:dc="http://purl.org/dc/elements/1.1/"
   xmlns:cc="http://creativecommons.org/ns#"
   xmlns:rdf="http://www.w3.org/1999/02/22-rdf-syntax-ns#"
   xmlns:svg="http://www.w3.org/2000/svg"
   xmlns="http://www.w3.org/2000/svg"
   viewBox="0 0 848.75 717.5"
   height="717.5"
   width="848.75"
   xml:space="preserve"
   version="1.1"
   id="svg2"><metadata
     id="metadata8"><rdf:RDF><cc:Work
         rdf:about=""><dc:format>image/svg+xml</dc:format><dc:type
           rdf:resource="http://purl.org/dc/dcmitype/StillImage" /></cc:Work></rdf:RDF></metadata><defs
     id="defs6"><clipPath
       id="clipPath18"
       clipPathUnits="userSpaceOnUse"><path
         id="path20"
         d="m 0,6 0,5728 6785,0 L 6785,6 0,6 Z" /></clipPath></defs><g
     transform="matrix(1.25,0,0,-1.25,0,717.5)"
     id="g10"><g
       transform="scale(0.1,0.1)"
       id="g12"><g
         id="g14"><g
           clip-path="url(#clipPath18)"
           id="g16"><path
             id="path22"
             style="fill:none;stroke:#000000;stroke-width:7.08699989;stroke-linecap:round;stroke-linejoin:round;stroke-miterlimit:10;stroke-dasharray:none;stroke-opacity:1"
             d="m 3404.18,1438.43 197.26,13.79 193.42,41.11 185.82,67.63 174.6,92.84 159.98,116.24 142.25,137.36 121.74,155.83 98.88,171.25 74.07,183.34 47.84,191.88 20.67,196.66 -6.9,197.62 -34.34,194.75 -61.11,188.06 -86.68,177.74 -110.58,163.93 -132.32,146.96 -151.48,127.11 -167.7,104.79 -180.65,80.43 -190.08,54.5 -195.82,27.52 -197.75,0 -195.82,-27.52 -190.09,-54.5 -180.64,-80.43 -167.7,-104.79 -151.48,-127.11 -132.32,-146.96 -110.58,-163.93 -86.69,-177.74 -61.1,-188.06 -34.34,-194.75 -6.9,-197.62 20.67,-196.66 47.84,-191.88 74.07,-183.34 98.88,-171.25 121.74,-155.83 142.25,-137.36 159.98,-116.24 174.59,-92.84" /><path
             id="path24"
             style="fill:none;stroke:#000000;stroke-width:7.08699989;stroke-linecap:round;stroke-linejoin:round;stroke-miterlimit:10;stroke-dasharray:none;stroke-opacity:1"
             d="m 2827.66,1560.96 185.82,-67.63 193.43,-41.11 197.27,-13.79" /><path
             id="path26"
             style="fill:none;stroke:#000000;stroke-width:7.08699989;stroke-linecap:round;stroke-linejoin:round;stroke-miterlimit:10;stroke-dasharray:none;stroke-opacity:1"
             d="m 3404.18,2855.82 655,0 11.84,-168.61 35.3,-165.3 58.07,-158.74 0,0 -129.9,-73.78 -113.49,-97.13 -92.94,-116.96 0,0 -152.99,86.52 -162.39,67.22 -169.38,46.93 0,0" /><path
             id="path28"
             style="fill:#000000;fill-opacity:1;fill-rule:evenodd;stroke:none"
             d="m 3343.3,2275.97 -55.03,47.91 6.51,-37.61 -21.23,-31.72 69.75,21.42" /><path
             id="path30"
             style="fill:none;stroke:#000000;stroke-width:7.08699989;stroke-linecap:round;stroke-linejoin:round;stroke-miterlimit:10;stroke-dasharray:none;stroke-opacity:1"
             d="m 3343.3,2275.97 -55.03,47.91 6.51,-37.61 -21.23,-31.72 69.75,21.42" /></g></g></g></g></svg>