<?xml version="1.0" encoding="UTF-8" standalone="no"?>
<!-- Created with Inkscape (http://www.inkscape.org/) -->
<svg id="svg2" xmlns:rdf="http://www.w3.org/1999/02/22-rdf-syntax-ns#" xmlns="http://www.w3.org/2000/svg" xml:space="preserve" height="717.5" viewBox="0 0 848.75 717.5" width="848.75" version="1.1" xmlns:cc="http://creativecommons.org/ns#" xmlns:dc="http://purl.org/dc/elements/1.1/"><metadata id="metadata8"><rdf:RDF><cc:Work rdf:about=""><dc:format>image/svg+xml</dc:format><dc:type rdf:resource="http://purl.org/dc/dcmitype/StillImage"/><dc:title/></cc:Work></rdf:RDF></metadata><defs id="defs6"><clipPath id="clipPath18" clipPathUnits="userSpaceOnUse"><path id="path20" d="m0 6v5728h6785v-5728h-6785z"/></clipPath></defs><g id="g10" transform="matrix(1.25,0,0,-1.25,0,717.5)"><g id="g12" transform="scale(.1)"><g id="g14"><g id="g16" clip-path="url(#clipPath18)"><g stroke-linejoin="round" stroke="#000" stroke-linecap="round" stroke-miterlimit="10" stroke-width="7.087" fill="none"><path id="path22" d="m3404.2 1438.4 197.26 13.79 193.42 41.11 185.82 67.63 174.6 92.84 159.98 116.24 142.25 137.36 121.74 155.83 98.88 171.25 74.07 183.34 47.84 191.88 20.67 196.66-6.9 197.62-34.34 194.75-61.11 188.06-86.68 177.74-110.58 163.93-132.32 146.96-151.48 127.11-167.7 104.79-180.65 80.43-190.08 54.5-195.82 27.52h-197.75l-195.82-27.52-190.09-54.5-180.64-80.43-167.7-104.79-151.48-127.11-132.32-146.96-110.58-163.93-86.69-177.74-61.1-188.06-34.34-194.75-6.9-197.62 20.67-196.66 47.84-191.88 74.07-183.34 98.88-171.25 121.74-155.83 142.25-137.36 159.98-116.24 174.59-92.84"/><path id="path24" d="m2827.7 1561 185.82-67.63 193.43-41.11 197.27-13.79"/><path id="path26" d="m3404.2 2855.8h655l11.84-168.61 35.3-165.3 58.07-158.74-129.9-73.78-113.49-97.13-92.94-116.96-152.99 86.52-162.39 67.22-169.38 46.93"/></g><path id="path28" d="m3343.3 2276-47.9-55.04 37.6 6.51 31.72-21.22-21.42 69.75" fill-rule="evenodd"/><path id="path30" stroke-linejoin="round" d="m3343.3 2276-47.9-55.04 37.6 6.51 31.72-21.22-21.42 69.75" stroke="#000" stroke-linecap="round" stroke-miterlimit="10" stroke-width="7.087" fill="none"/></g></g></g></g></svg>
