<?xml version="1.0" encoding="UTF-8" standalone="no"?>
<!-- Created with Inkscape (http://www.inkscape.org/) -->
<svg id="svg3396" xmlns:rdf="http://www.w3.org/1999/02/22-rdf-syntax-ns#" xmlns="http://www.w3.org/2000/svg" xml:space="preserve" height="717.5" viewBox="0 0 848.75 717.5" width="848.75" version="1.1" xmlns:cc="http://creativecommons.org/ns#" xmlns:dc="http://purl.org/dc/elements/1.1/"><metadata id="metadata3402"><rdf:RDF><cc:Work rdf:about=""><dc:format>image/svg+xml</dc:format><dc:type rdf:resource="http://purl.org/dc/dcmitype/StillImage"/><dc:title/></cc:Work></rdf:RDF></metadata><defs id="defs3400"><clipPath id="clipPath3412" clipPathUnits="userSpaceOnUse"><path id="path3414" d="m0 6v5728h6785v-5728h-6785z"/></clipPath></defs><g id="g3404" transform="matrix(1.25,0,0,-1.25,0,717.5)"><g id="g3406" transform="scale(.1)"><g id="g3408"><g id="g3410" clip-path="url(#clipPath3412)"><g stroke-linejoin="round" stroke-linecap="round" stroke-miterlimit="10" stroke-width="7.087" fill="none"><path id="path3416" d="m3404.2 1438.4 197.26 13.79 193.42 41.11 185.82 67.63 174.6 92.84 159.98 116.24 142.25 137.36 121.74 155.83 98.88 171.25 74.07 183.34 47.84 191.88 20.67 196.66-6.9 197.62-34.34 194.75-61.11 188.06-86.68 177.74-110.58 163.93-132.32 146.96-151.48 127.11-167.7 104.79-180.65 80.43-190.08 54.5-195.82 27.52h-197.75l-195.82-27.52-190.09-54.5-180.64-80.43-167.7-104.79-151.48-127.11-132.32-146.96-110.58-163.93-86.69-177.74-61.1-188.06-34.34-194.75-6.9-197.62 20.67-196.66 47.84-191.88 74.07-183.34 98.88-171.25 121.74-155.83 142.25-137.36 159.98-116.24 174.59-92.84" stroke="#000"/><path id="path3418" d="m2827.7 1561 185.82-67.63 193.43-41.11 197.27-13.79" stroke="#000"/><path id="path3420" d="m3404.2 2855.8h655l11.84-168.61 35.3-165.3 58.07-158.74-129.9-73.78-113.49-97.13-92.94-116.96-152.99 86.52-162.39 67.22-169.38 46.93 155.32 652.6 618.58-143.55-19.56-162.01 5.82-163.07 31.04-160.2-140.62-53.51-128.08-78.93-111.01-101.56-141.93 115.84-152.96 100.81-162.43 84.74 309.44 607.23 271.47-141.63 279.92-124.1-46.98-151.17-20.96-156.9 5.66-158.2-149.2-32.04-140.86-58.69-127.8-83.36" stroke="#a52a2a"/><path id="path3422" d="m3678.2 2068.3-124.51 145.01-135.66 134.63-145.95 123.4 448.07 520.03 222.81-192 240.58-169.2-70.56-137.38-45.06-147.72-18.13-153.38-155.52-9.2-151.55-36.14-142.95-61.96-153.36 256.43-174.58 242.48 558.06 397.69" stroke="#a52a2a"/></g><path id="path3424" d="m3829.8 2981-4.72 72.81-22.12-31.09-37.47-7.26 64.31-34.46" fill-rule="evenodd"/><path id="path3426" stroke-linejoin="round" d="m3829.8 2981-4.72 72.81-22.12-31.09-37.47-7.26 64.31-34.46" stroke="#a52a2a" stroke-linecap="round" stroke-miterlimit="10" stroke-width="7.087" fill="none"/></g></g></g></g></svg>
