<?xml version="1.0" encoding="UTF-8" standalone="no"?>
<svg
   xmlns:dc="http://purl.org/dc/elements/1.1/"
   xmlns:cc="http://creativecommons.org/ns#"
   xmlns:rdf="http://www.w3.org/1999/02/22-rdf-syntax-ns#"
   xmlns:svg="http://www.w3.org/2000/svg"
   xmlns="http://www.w3.org/2000/svg"
   viewBox="0 0 848.75 717.5"
   height="717.5"
   width="848.75"
   xml:space="preserve"
   version="1.1"
   id="svg2"><metadata
     id="metadata8"><rdf:RDF><cc:Work
         rdf:about=""><dc:format>image/svg+xml</dc:format><dc:type
           rdf:resource="http://purl.org/dc/dcmitype/StillImage" /></cc:Work></rdf:RDF></metadata><defs
     id="defs6"><clipPath
       id="clipPath18"
       clipPathUnits="userSpaceOnUse"><path
         id="path20"
         d="m 0,6 0,5728 6785,0 L 6785,6 0,6 Z" /></clipPath></defs><g
     transform="matrix(1.25,0,0,-1.25,0,717.5)"
     id="g10"><g
       transform="scale(0.1,0.1)"
       id="g12"><g
         id="g14"><g
           clip-path="url(#clipPath18)"
           id="g16"><path
             id="path22"
             style="fill:none;stroke:#000000;stroke-width:7.08699989;stroke-linecap:round;stroke-linejoin:round;stroke-miterlimit:10;stroke-dasharray:none;stroke-opacity:1"
             d="m 3404.18,1438.43 197.26,13.79 193.42,41.11 185.82,67.63 174.6,92.84 159.98,116.24 142.25,137.36 121.74,155.83 98.88,171.25 74.07,183.34 47.84,191.88 20.67,196.66 -6.9,197.62 -34.34,194.75 -61.11,188.06 -86.68,177.74 -110.58,163.93 -132.32,146.96 -151.48,127.11 -167.7,104.79 -180.65,80.43 -190.08,54.5 -195.82,27.52 -197.75,0 -195.82,-27.52 -190.09,-54.5 -180.64,-80.43 -167.7,-104.79 -151.48,-127.11 -132.32,-146.96 -110.58,-163.93 -86.69,-177.74 -61.1,-188.06 -34.34,-194.75 -6.9,-197.62 20.67,-196.66 47.84,-191.88 74.07,-183.34 98.88,-171.25 121.74,-155.83 142.25,-137.36 159.98,-116.24 174.59,-92.84" /><path
             id="path24"
             style="fill:none;stroke:#000000;stroke-width:7.08699989;stroke-linecap:round;stroke-linejoin:round;stroke-miterlimit:10;stroke-dasharray:none;stroke-opacity:1"
             d="m 2827.66,1560.96 185.82,-67.63 193.43,-41.11 197.27,-13.79" /><path
             id="path26"
             style="fill:none;stroke:#a52a2a;stroke-width:7.08699989;stroke-linecap:round;stroke-linejoin:round;stroke-miterlimit:10;stroke-dasharray:none;stroke-opacity:1"
             d="m 3404.18,2855.82 655,0 11.84,-168.61 35.3,-165.3 58.07,-158.74 0,0 -129.9,-73.78 -113.49,-97.13 -92.94,-116.96 0,0 -152.99,86.52 -162.39,67.22 -169.38,46.93 0,0 155.32,652.6 0,0 618.58,-143.55 0,0 -19.56,-162.01 5.82,-163.07 31.04,-160.2 0,0 -140.62,-53.51 -128.08,-78.93 -111.01,-101.56 0,0 -141.93,115.84 -152.96,100.81 -162.43,84.74 0,0 309.44,607.23 0,0 271.47,-141.63 279.92,-124.1 0,0 -46.98,-151.17 -20.96,-156.9 5.66,-158.2 0,0 -149.2,-32.04 -140.86,-58.69 -127.8,-83.36 0,0" /><path
             id="path28"
             style="fill:none;stroke:#a52a2a;stroke-width:7.08699989;stroke-linecap:round;stroke-linejoin:round;stroke-miterlimit:10;stroke-dasharray:none;stroke-opacity:1"
             d="m 3678.16,2068.27 -124.51,145.01 -135.66,134.63 -145.95,123.4 0,0 448.07,520.03 0,0 222.81,-192 240.58,-169.2 0,0 -70.56,-137.38 -45.06,-147.72 -18.13,-153.38 0,0 -155.52,-9.2 -151.55,-36.14 -142.95,-61.96 0,0 -153.36,256.43 -174.58,242.48 0,0 558.06,397.69 0,0" /><path
             id="path30"
             style="fill:#000000;fill-opacity:1;fill-rule:evenodd;stroke:none"
             d="m 3829.85,2980.96 -4.72,72.81 -22.12,-31.09 -37.47,-7.26 64.31,-34.46" /><path
             id="path32"
             style="fill:none;stroke:#a52a2a;stroke-width:7.08699989;stroke-linecap:round;stroke-linejoin:round;stroke-miterlimit:10;stroke-dasharray:none;stroke-opacity:1"
             d="m 3829.85,2980.96 -4.72,72.81 -22.12,-31.09 -37.47,-7.26 64.31,-34.46" /></g></g></g></g></svg>