<?xml version="1.0" encoding="UTF-8" standalone="no"?>
<svg
   xmlns:dc="http://purl.org/dc/elements/1.1/"
   xmlns:cc="http://creativecommons.org/ns#"
   xmlns:rdf="http://www.w3.org/1999/02/22-rdf-syntax-ns#"
   xmlns:svg="http://www.w3.org/2000/svg"
   xmlns="http://www.w3.org/2000/svg"
   viewBox="0 0 848.75 717.5"
   height="717.5"
   width="848.75"
   xml:space="preserve"
   version="1.1"
   id="svg2"><metadata
     id="metadata8"><rdf:RDF><cc:Work
         rdf:about=""><dc:format>image/svg+xml</dc:format><dc:type
           rdf:resource="http://purl.org/dc/dcmitype/StillImage" /></cc:Work></rdf:RDF></metadata><defs
     id="defs6"><clipPath
       id="clipPath18"
       clipPathUnits="userSpaceOnUse"><path
         id="path20"
         d="m 0,6 0,5728 6785,0 L 6785,6 0,6 Z" /></clipPath></defs><g
     transform="matrix(1.25,0,0,-1.25,0,717.5)"
     id="g10"><g
       transform="scale(0.1,0.1)"
       id="g12"><g
         id="g14"><g
           clip-path="url(#clipPath18)"
           id="g16"><path
             id="path22"
             style="fill:none;stroke:#000000;stroke-width:7.08699989;stroke-linecap:round;stroke-linejoin:round;stroke-miterlimit:10;stroke-dasharray:none;stroke-opacity:1"
             d="m 3404.18,1438.43 197.26,13.79 193.42,41.11 185.82,67.63 174.6,92.84 159.98,116.24 142.25,137.36 121.74,155.83 98.88,171.25 74.07,183.34 47.84,191.88 20.67,196.66 -6.9,197.62 -34.34,194.75 -61.11,188.06 -86.68,177.74 -110.58,163.93 -132.32,146.96 -151.48,127.11 -167.7,104.79 -180.65,80.43 -190.08,54.5 -195.82,27.52 -197.75,0 -195.82,-27.52 -190.09,-54.5 -180.64,-80.43 -167.7,-104.79 -151.48,-127.11 -132.32,-146.96 -110.58,-163.93 -86.69,-177.74 -61.1,-188.06 -34.34,-194.75 -6.9,-197.62 20.67,-196.66 47.84,-191.88 74.07,-183.34 98.88,-171.25 121.74,-155.83 142.25,-137.36 159.98,-116.24 174.59,-92.84" /><path
             id="path24"
             style="fill:none;stroke:#000000;stroke-width:7.08699989;stroke-linecap:round;stroke-linejoin:round;stroke-miterlimit:10;stroke-dasharray:none;stroke-opacity:1"
             d="m 2827.66,1560.96 185.82,-67.63 193.43,-41.11 197.27,-13.79" /><path
             id="path26"
             style="fill:none;stroke:#0000ff;stroke-width:7.08699989;stroke-linecap:round;stroke-linejoin:round;stroke-miterlimit:10;stroke-dasharray:none;stroke-opacity:1"
             d="m 3404.18,2855.82 70.8,0 0.18,70.64 0,0 -0.18,-70.64 0,0 0.18,70.64 0,0 0.53,70.28 0,0 -70.1,1.05 0,0 -70.07,1.75 0,0 -2.29,-70.23 0,0 -2.66,-70.57 0,0 2.66,70.57 0,0 2.29,70.23 0,0 -69.7,2.44 0,0 -3.14,-69.66 0,0 3.14,69.66 0,0 -3.14,-69.66 0,0 -3.87,-69.96 0,0 70.3,-4.26 0,0 -4.46,-70.47 0,0 70.45,-4.83 0,0 -70.45,4.83 0,0 -70.1,4.44 0,0 3.89,69.95" /><path
             id="path28"
             style="fill:none;stroke:#0000ff;stroke-width:7.08699989;stroke-linecap:round;stroke-linejoin:round;stroke-miterlimit:10;stroke-dasharray:none;stroke-opacity:1"
             d="m 3258.44,2862.02 0,0 -3.89,-69.95 0,0 70.1,-4.44 0,0 -70.1,4.44 0,0 -4.58,-69.54 0,0 -5.24,-68.8 0,0 68.55,-6.09 0,0 6.51,69.22 0,0 -69.45,5.99 0,0 -68.8,5.23 0,0 4.35,68.69 0,0 -68.4,3.65 0,0 -67.05,3.24 0,0 2.22,66.42 0,0 -65.62,1.4 0,0 0.44,64.64 0,0 -0.44,-64.64 0,0 -2.34,-64.64 0,0 2.34,64.64 0,0 -63.72,1.38 0,0 -61.59,1.37 0,0 0.2,60.4" /><path
             id="path30"
             style="fill:none;stroke:#0000ff;stroke-width:7.08699989;stroke-linecap:round;stroke-linejoin:round;stroke-miterlimit:10;stroke-dasharray:none;stroke-opacity:1"
             d="m 2861.93,2934.63 0,0 61.39,1.17 0,0 0.32,-62.63 0,0 -61.61,0.75 0,0 -0.4,60.4 0,0 61.37,1.78 0,0 63.45,2.27 0,0 -63.45,-2.27 0,0 0.96,-62.62 0,0 -61.63,0.13 0,0 -1.32,-60.46 0,0 -3.61,-60.09 0,0 60.84,-5.13 0,0 62.85,-5.98 0,0 -7.29,-63.27 0,0 7.29,63.27 0,0 64.62,-6.87 0,0 -8.05,-64.9 0,0 -9.45,-63.63 0,0 -62.2,9.31 0,0 -9.28,-60.66 0,0 -10.66,-58.83" /><path
             id="path32"
             style="fill:none;stroke:#0000ff;stroke-width:7.08699989;stroke-linecap:round;stroke-linejoin:round;stroke-miterlimit:10;stroke-dasharray:none;stroke-opacity:1"
             d="m 2946.07,2496.37 0,0 10.66,58.83 0,0 -59.04,9.09 0,0 59.04,-9.09 0,0 -10.66,-58.83 0,0 -57.16,10.27 0,0 -55.65,8.26 0,0 6.38,55.67 0,0 57.46,-6.2 0,0 6.11,59.17 0,0 -6.11,-59.17 0,0 -57.46,6.2 0,0 57.46,-6.2 0,0 -7.87,-57.49 0,0 -9.42,-55.54 0,0 9.42,55.54 0,0 -9.42,-55.54 0,0 9.42,55.54 0,0 7.87,57.49 0,0 -7.87,-57.49 0,0 7.87,57.49 0,0 -7.87,-57.49" /><path
             id="path34"
             style="fill:none;stroke:#0000ff;stroke-width:7.08699989;stroke-linecap:round;stroke-linejoin:round;stroke-miterlimit:10;stroke-dasharray:none;stroke-opacity:1"
             d="m 2889.23,2506.88 0,0 -9.42,-55.54 0,0 55.08,-11.26 0,0 56.07,-13.57 0,0 -15.03,-55.24 0,0 54.15,-16.54 0,0 17.77,55.47 0,0 17.61,57.85 0,0 -58.76,16.36 0,0 14.88,59.54 0,0 -60.08,13.48 0,0 -13.08,-58.5 0,0 57.91,-14.73 0,0 -57.91,14.73 0,0 13.08,58.5 0,0 -13.08,-58.5 0,0 -14.11,-56.33 0,0 14.11,56.33 0,0 -56.88,12.55 0,0 10.77,57.27 0,0 58.96,-10.95 0,0 11.23,60.55" /><path
             id="path36"
             style="fill:none;stroke:#0000ff;stroke-width:7.08699989;stroke-linecap:round;stroke-linejoin:round;stroke-miterlimit:10;stroke-dasharray:none;stroke-opacity:1"
             d="m 2972.5,2618.35 0,0 9.79,62.16 0,0 -62.02,8.38 0,0 -60.18,7.16 0,0 60.18,-7.16 0,0 62.02,-8.38 0,0 63.61,-9.67 0,0 64.9,-10.98 0,0 -64.9,10.98 0,0 -63.61,9.67 0,0 8.19,63.45 0,0 -63.07,6.9 0,0 5.47,62.51 0,0 3.41,62.98 0,0 64.1,-2.41 0,0 -3.37,-64.96 0,0 -63.85,4.05 0,0 -4.85,-62.57 0,0 -61.19,5.43 0,0 61.19,-5.43 0,0 -61.19,5.43 0,0 -59.01,4.63" /><path
             id="path38"
             style="fill:none;stroke:#0000ff;stroke-width:7.08699989;stroke-linecap:round;stroke-linejoin:round;stroke-miterlimit:10;stroke-dasharray:none;stroke-opacity:1"
             d="m 2808.12,2760.52 0,0 -56.66,3.9 0,0 -4.77,-55.02 0,0 -53.33,5.44 0,0 3.65,52.54 0,0 54.19,-2.67 0,0 -54.19,2.67 0,0 -51.58,2.1 0,0 51.58,-2.1 0,0 1.06,53.1 0,0 -1.59,53.22 0,0 -51.78,-2.74 0,0 -49.1,-2.41 0,0 49.1,2.41 0,0 -3.9,50.21 0,0 -6.49,49.42 0,0 6.49,-49.42 0,0 51.18,5.62 0,0 53.7,6.48 0,0 5.7,-55.32 0,0 56.89,4.71 0,0 -6.16,57.77" /><path
             id="path40"
             style="fill:none;stroke:#0000ff;stroke-width:7.08699989;stroke-linecap:round;stroke-linejoin:round;stroke-miterlimit:10;stroke-dasharray:none;stroke-opacity:1"
             d="m 2802.11,2940.43 0,0 -56.19,-6.85 0,0 -53.77,-5.97 0,0 53.77,5.97 0,0 5.16,-55.37 0,0 -54.38,-3.69 0,0 54.38,3.69 0,0 2.64,-55.82 0,0 -54.59,-1.35 0,0 -51.94,-1.36 0,0 51.94,1.36 0,0 -51.94,-1.36 0,0 0,-50.52 0,0 0,50.52 0,0 51.94,1.36 0,0 -51.94,-1.36 0,0 0,-50.52 0,0 51.7,-1.58 0,0 -3.12,-52.69 0,0 3.12,52.69 0,0 54.3,-2.1 0,0 -3.61,-55.22" /><path
             id="path42"
             style="fill:none;stroke:#0000ff;stroke-width:7.08699989;stroke-linecap:round;stroke-linejoin:round;stroke-miterlimit:10;stroke-dasharray:none;stroke-opacity:1"
             d="m 2749.58,2710.26 0,0 55.97,-5.35 0,0 -55.97,5.35 0,0 -53.57,4.35 0,0 2.6,52.71 0,0 -0.01,53.17 0,0 -51.91,-1.33 0,0 -0.02,-50.5 0,0 51.67,-1.6 0,0 -3.14,-52.65 0,0 -50.99,3.95 0,0 2.2,50.06 0,0 -2.2,-50.06 0,0 -4.76,-49.21 0,0 49.82,-6.66 0,0 6.17,51.64 0,0 3.69,52.64 0,0 1.1,53.2 0,0 -52.01,-0.27 0,0 -49.31,-0.37 0,0 49.31,0.37 0,0 52.01,0.27" /><path
             id="path44"
             style="fill:none;stroke:#0000ff;stroke-width:7.08699989;stroke-linecap:round;stroke-linejoin:round;stroke-miterlimit:10;stroke-dasharray:none;stroke-opacity:1"
             d="m 2700.23,2819.97 0,0 -1.55,53.33 0,0 1.55,-53.33 0,0 54.65,0.16 0,0 -54.65,-0.16 0,0 -1.55,53.33 0,0 54.53,3.04 0,0 57.06,3.43 0,0 -4.81,58.02 0,0 -7.14,57.19 0,0 57.7,8.89 0,0 -57.7,-8.89 0,0 7.14,-57.19 0,0 -56.49,-5.59 0,0 -6.4,54.82 0,0 -8.73,53.63 0,0 -10.84,52.07 0,0 52.08,12.8 0,0 -14.57,51.88 0,0 14.57,-51.88 0,0 53.72,14.82 0,0 15.15,-55.48" /><path
             id="path46"
             style="fill:none;stroke:#0000ff;stroke-width:7.08699989;stroke-linecap:round;stroke-linejoin:round;stroke-miterlimit:10;stroke-dasharray:none;stroke-opacity:1"
             d="m 2843.95,3064.86 0,0 13.53,-57.34 0,0 -57.21,-11.89 0,0 57.21,11.89 0,0 11.71,-58.86 0,0 -11.71,58.86 0,0 -13.53,57.34 0,0 57.21,15.31 0,0 -16.89,56.92 0,0 16.89,-56.92 0,0 15.57,-58.84 0,0 60.42,15.65 0,0 -17.06,60.22 0,0 17.06,-60.22 0,0 -17.06,60.22 0,0 59.76,18.6 0,0 19.19,-61.1 0,0 18.3,-62.79 0,0 -18.3,62.79 0,0 -61.5,-17.94 0,0 61.5,17.94 0,0 62.37,19.61" /><path
             id="path48"
             style="fill:none;stroke:#0000ff;stroke-width:7.08699989;stroke-linecap:round;stroke-linejoin:round;stroke-miterlimit:10;stroke-dasharray:none;stroke-opacity:1"
             d="m 3101.41,3074.31 0,0 62.92,21.26 0,0 -62.92,-21.26 0,0 62.92,21.26 0,0 -22.14,62.23 0,0 22.14,-62.23 0,0 -22.14,62.23 0,0 -22.17,60.38 0,0 -22.07,58.34 0,0 -21.84,56.1 0,0 21.84,-56.1 0,0 -21.84,56.1 0,0 21.84,-56.1 0,0 -21.84,56.1 0,0 -55.04,-20.48 0,0 19.2,-56.28 0,0 -57.28,-17.96 0,0 -56.67,-15.66 0,0 14,-57.33 0,0 -14,57.33 0,0 -55.68,-13.41 0,0 -12.93,53.96" /><path
             id="path50"
             style="fill:none;stroke:#0000ff;stroke-width:7.08699989;stroke-linecap:round;stroke-linejoin:round;stroke-miterlimit:10;stroke-dasharray:none;stroke-opacity:1"
             d="m 2857.71,3262.79 0,0 12.93,-53.96 0,0 -12.93,53.96 0,0 -14.01,51.57 0,0 14.01,-51.57 0,0 12.93,-53.96 0,0 11.6,-56.12 0,0 -11.6,56.12 0,0 11.6,-56.12 0,0 -11.6,56.12 0,0 55.68,13.41 0,0 -14.98,55.07 0,0 14.98,-55.07 0,0 56.67,15.66 0,0 16.47,-58.16 0,0 15.67,-60.25 0,0 14.69,-62.09 0,0 13.55,-63.65 0,0 -63.63,-12.31 0,0 -62.04,-11.09 0,0 9.55,-61.69 0,0 -61.14,-8.19" /><path
             id="path52"
             style="fill:none;stroke:#0000ff;stroke-width:7.08699989;stroke-linecap:round;stroke-linejoin:round;stroke-miterlimit:10;stroke-dasharray:none;stroke-opacity:1"
             d="m 2866.11,2900.47 0,0 6.69,-60.4 0,0 61.75,5.75 0,0 -61.75,-5.75 0,0 -6.69,60.4 0,0 61.14,8.19 0,0 63.1,8.98 0,0 -10.24,63.54 0,0 63.77,11.66 0,0 11.58,-65.02 0,0 -64.74,-10.45 0,0 64.74,10.45 0,0 66.17,11.3 0,0 11.13,-67.14 0,0 9.92,-67.62 0,0 -67.04,-9.23 0,0 67.04,9.23 0,0 -67.04,-9.23 0,0 8.36,-66.31 0,0 -65.4,-7.68 0,0 -63.55,-7.86 0,0 63.55,7.86" /><path
             id="path54"
             style="fill:none;stroke:#0000ff;stroke-width:7.08699989;stroke-linecap:round;stroke-linejoin:round;stroke-miterlimit:10;stroke-dasharray:none;stroke-opacity:1"
             d="m 3018.6,2721.14 0,0 -63.55,-7.86 0,0 -8.97,62.52 0,0 -11.02,62.23 0,0 11.02,-62.23 0,0 -61.38,-9.85 0,0 8.55,-60.39 0,0 -8.55,60.39 0,0 61.38,9.85 0,0 63.43,10.15 0,0 9.37,-64.45 0,0 65.33,8.36 0,0 7.47,-66.02 0,0 5.86,-65.43 0,0 -64.19,-5.52 0,0 -62.33,-6.37 0,0 -60.24,-7.1 0,0 6.29,-58.75 0,0 -57.16,-5.65 0,0 -54.77,-6.5 0,0 -8.16,53.8 0,0 55.29,9.3" /><path
             id="path56"
             style="fill:none;stroke:#0000ff;stroke-width:7.08699989;stroke-linecap:round;stroke-linejoin:round;stroke-miterlimit:10;stroke-dasharray:none;stroke-opacity:1"
             d="m 2852.27,2571.62 0,0 57.75,8.9 0,0 7.52,-58.62 0,0 59.34,5.89 0,0 4.37,-59.81 0,0 2.45,-58.39 0,0 0.64,-56.68 0,0 -1,-54.7 0,0 1,54.7 0,0 -54.86,-0.77 0,0 -52.94,-2.55 0,0 -50.79,-4.15 0,0 50.79,4.15 0,0 2.34,-51.06 0,0 -2.34,51.06 0,0 -4.5,52.64 0,0 -6.83,53.89 0,0 -9.26,54.77 0,0 -11.79,55.24 0,0 -54.05,-13.05 0,0 54.05,13.05 0,0 11.79,-55.24" /><path
             id="path58"
             style="fill:none;stroke:#0000ff;stroke-width:7.08699989;stroke-linecap:round;stroke-linejoin:round;stroke-miterlimit:10;stroke-dasharray:none;stroke-opacity:1"
             d="m 2855.95,2510.89 0,0 -11.79,55.24 0,0 56.57,13.01 0,0 -56.57,-13.01 0,0 -54.05,-13.05 0,0 11.72,-52.71 0,0 53.89,10.19 0,0 56.39,9.67 0,0 -10.54,57.87 0,0 -56.85,-11.85 0,0 -13.19,55.61 0,0 -54.26,-14.29 0,0 -15.38,52.73 0,0 15.38,-52.73 0,0 54.26,14.29 0,0 -54.26,-14.29 0,0 54.26,14.29 0,0 -54.26,-14.29 0,0 -51.69,-13.91 0,0 51.69,13.91 0,0 -51.69,-13.91 0,0 51.69,13.91" /><path
             id="path60"
             style="fill:none;stroke:#0000ff;stroke-width:7.08699989;stroke-linecap:round;stroke-linejoin:round;stroke-miterlimit:10;stroke-dasharray:none;stroke-opacity:1"
             d="m 2777.27,2607.57 0,0 -51.69,-13.91 0,0 -15.01,50.09 0,0 15.01,-50.09 0,0 -49.04,-13.47 0,0 -46.37,-12.99 0,0 46.37,12.99 0,0 -14.56,47.39 0,0 -17.11,46.46 0,0 -19.45,45.09 0,0 19.45,-45.09 0,0 17.11,-46.46 0,0 48.26,16.33 0,0 50.77,17.27 0,0 16.49,-52.39 0,0 -16.49,52.39 0,0 53.2,18.19 0,0 17.47,-54.77 0,0 56.28,16.47 0,0 -17.83,57.2 0,0 -55.73,-18.54 0,0 16.92,-54.93" /><path
             id="path62"
             style="fill:none;stroke:#0000ff;stroke-width:7.08699989;stroke-linecap:round;stroke-linejoin:round;stroke-miterlimit:10;stroke-dasharray:none;stroke-opacity:1"
             d="m 2831.32,2624.8 0,0 56.43,15.9 0,0 14.92,-57.73 0,0 -56.54,-13.74 0,0 -15.01,55.21 0,0 56.26,16.47 0,0 58.58,16.87 0,0 15.96,-59.78 0,0 60.88,14.78 0,0 -60.88,-14.78 0,0 -15.96,59.78 0,0 -58.58,-16.87 0,0 -56.26,-16.47 0,0 -17.45,54.74 0,0 17.45,-54.74 0,0 56.26,16.47 0,0 58.58,16.87 0,0 -18.1,59.47 0,0 -58.12,-18.79 0,0 17.27,-57.34 0,0 -56.4,-15.93 0,0 56.4,15.93" /><path
             id="path64"
             style="fill:none;stroke:#0000ff;stroke-width:7.08699989;stroke-linecap:round;stroke-linejoin:round;stroke-miterlimit:10;stroke-dasharray:none;stroke-opacity:1"
             d="m 2887.01,2641.12 0,0 -56.4,-15.93 0,0 -16.94,54.91 0,0 55.69,18.56 0,0 -55.69,-18.56 0,0 55.69,18.56 0,0 -55.69,-18.56 0,0 16.94,-54.91 0,0 56.4,15.93 0,0 -17.27,57.34 0,0 -55.89,-18 0,0 55.89,18 0,0 -55.89,-18 0,0 -53.53,-17.18 0,0 -51.07,-16.35 0,0 -48.54,-15.48 0,0 -45.97,-14.62 0,0 -43.37,-13.76 0,0 43.37,13.76 0,0 12.88,-45.03 0,0 -12.88,45.03 0,0 -43.37,-13.76" /><path
             id="path66"
             style="fill:none;stroke:#0000ff;stroke-width:7.08699989;stroke-linecap:round;stroke-linejoin:round;stroke-miterlimit:10;stroke-dasharray:none;stroke-opacity:1"
             d="m 2571.37,2603.07 0,0 -40.81,-12.92 0,0 -13.74,39.05 0,0 -37.3,-14.33 0,0 -34.99,-13.15 0,0 -13.68,33.23 0,0 -31.54,-14.02 0,0 -14.28,29.79 0,0 29.86,16.05 0,0 31.57,17.88 0,0 -31.57,-17.88 0,0 -29.86,-16.05 0,0 14.28,-29.79 0,0 31.54,14.02 0,0 33.56,15.5 0,0 15.22,-35.33 0,0 -34.87,-13.5 0,0 34.87,13.5 0,0 -34.87,-13.5 0,0 -32.62,-12.35 0,0 32.62,12.35 0,0 11.75,-34.24" /><path
             id="path68"
             style="fill:none;stroke:#0000ff;stroke-width:7.08699989;stroke-linecap:round;stroke-linejoin:round;stroke-miterlimit:10;stroke-dasharray:none;stroke-opacity:1"
             d="m 2456.51,2567.38 0,0 -11.75,34.24 0,0 34.87,13.5 0,0 -15.22,35.33 0,0 15.22,-35.33 0,0 37.16,14.73 0,0 39.48,16.04 0,0 -17.84,39.9 0,0 17.84,-39.9 0,0 41.81,17.43 0,0 16.96,-43.62 0,0 45.48,16.25 0,0 -45.48,-16.25 0,0 14.44,-44.67 0,0 11.79,-45.26 0,0 -44.04,-10.36 0,0 8.91,-42.72 0,0 6.23,-42.47 0,0 3.63,-41.79 0,0 -40.08,-2.89 0,0 40.08,2.89 0,0 -40.08,-2.89" /><path
             id="path70"
             style="fill:none;stroke:#0000ff;stroke-width:7.08699989;stroke-linecap:round;stroke-linejoin:round;stroke-miterlimit:10;stroke-dasharray:none;stroke-opacity:1"
             d="m 2575.92,2389.54 0,0 -4.62,39.23 0,0 40.83,5.64 0,0 43.44,5 0,0 -5.94,45.08 0,0 46.68,7.08 0,0 49.36,6.55 0,0 -49.36,-6.55 0,0 -46.68,-7.08 0,0 46.68,7.08 0,0 5.52,-47.7 0,0 48.56,3.72 0,0 51.02,2.58 0,0 53.35,1.25 0,0 -53.35,-1.25 0,0 0.82,-51.49 0,0 -0.82,51.49 0,0 0.82,-51.49 0,0 -0.82,51.49 0,0 -51.02,-2.58 0,0 -48.56,-3.72 0,0 2.96,-46.76" /><path
             id="path72"
             style="fill:none;stroke:#0000ff;stroke-width:7.08699989;stroke-linecap:round;stroke-linejoin:round;stroke-miterlimit:10;stroke-dasharray:none;stroke-opacity:1"
             d="m 2704.79,2397.11 0,0 47.34,1.05 0,0 -1.47,49.19 0,0 -48.61,-3.22 0,0 -5.05,47.78 0,0 -7.7,48.35 0,0 49.85,8.97 0,0 7.54,-50.99 0,0 -49.41,-6.54 0,0 -46.74,-7.06 0,0 -44.05,-7.44 0,0 6.25,-42.5 0,0 -40.93,-5.25 0,0 -38.34,-5.76 0,0 -7.26,37.17 0,0 -35.92,-8.5 0,0 -9.68,34.51 0,0 35.53,11.21 0,0 38.06,11.79 0,0 40.66,12.34 0,0 43.32,12.86 0,0 11.75,-44.82" /><path
             id="path74"
             style="fill:none;stroke:#0000ff;stroke-width:7.08699989;stroke-linecap:round;stroke-linejoin:round;stroke-miterlimit:10;stroke-dasharray:none;stroke-opacity:1"
             d="m 2649.93,2490.25 0,0 9.03,-44.84 0,0 -9.03,44.84 0,0 -11.75,44.82 0,0 46.01,13.32 0,0 -14.87,47.07 0,0 -45.42,-15.75 0,0 45.42,15.75 0,0 14.87,-47.07 0,0 12.19,-47.48 0,0 -46.17,-10.84 0,0 -43.45,-10.77 0,0 9.37,-42.1 0,0 -40.69,-8.15 0,0 6.94,-39.21 0,0 4.39,-38.61 0,0 39.39,2.63 0,0 -39.39,-2.63 0,0 39.39,2.63 0,0 41.74,1.43 0,0 -0.35,-42.13 0,0 0.35,42.13" /><path
             id="path76"
             style="fill:none;stroke:#0000ff;stroke-width:7.08699989;stroke-linecap:round;stroke-linejoin:round;stroke-miterlimit:10;stroke-dasharray:none;stroke-opacity:1"
             d="m 2667.9,2355.29 0,0 -41.74,-1.43 0,0 41.74,1.43 0,0 44.03,-0.01 0,0 -44.03,0.01 0,0 44.03,-0.01 0,0 -44.03,0.01 0,0 44.03,-0.01 0,0 46.16,-1.68 0,0 -46.16,1.68 0,0 46.16,-1.68 0,0 -46.16,1.68 0,0 -44.03,0.01 0,0 44.03,-0.01 0,0 -44.03,0.01 0,0 -0.35,-42.13 0,0 42.31,-2.32 0,0 2.28,44.21 0,0 46.14,-2.17 0,0 48.05,-4.12 0,0 49.7,-6.27 0,0 -49.7,6.27" /><path
             id="path78"
             style="fill:none;stroke:#0000ff;stroke-width:7.08699989;stroke-linecap:round;stroke-linejoin:round;stroke-miterlimit:10;stroke-dasharray:none;stroke-opacity:1"
             d="m 2806.33,2348.76 0,0 49.7,-6.27 0,0 51.06,-8.6 0,0 52.05,-11.07 0,0 12.01,53.69 0,0 -54.47,10.44 0,0 -53.3,8.1 0,0 6.19,53.66 0,0 -53.77,4.42 0,0 -4.45,-51.88 0,0 -49.98,4.38 0,0 -4.37,-48.06 0,0 47.86,-6.37 0,0 -47.86,6.37 0,0 -46.14,4.26 0,0 -44.17,2.38 0,0 -42.04,0.74 0,0 -1.18,41.59 0,0 -3.63,42.65 0,0 -41.75,-5.23 0,0 41.75,5.23 0,0 3.63,-42.65" /><path
             id="path80"
             style="fill:none;stroke:#0000ff;stroke-width:7.08699989;stroke-linecap:round;stroke-linejoin:round;stroke-miterlimit:10;stroke-dasharray:none;stroke-opacity:1"
             d="m 2623.47,2406.54 0,0 1.18,-41.59 0,0 -1.07,-40.18 0,0 40.34,-3 0,0 -40.34,3 0,0 -38.35,1.31 0,0 -36.24,-0.15 0,0 -1.92,35.71 0,0 1.92,-35.71 0,0 -0.25,-34.5 0,0 -2.18,-33.02 0,0 -3.85,-31.3 0,0 31.06,-5.56 0,0 32.22,-7.62 0,0 -9.14,-31.58 0,0 30.69,-10.65 0,0 30.97,-13.06 0,0 30.86,-15.5 0,0 -16.45,-29.47 0,0 27.92,-17.29 0,0 -27.92,17.29 0,0 27.92,-17.29" /><path
             id="path82"
             style="fill:none;stroke:#0000ff;stroke-width:7.08699989;stroke-linecap:round;stroke-linejoin:round;stroke-miterlimit:10;stroke-dasharray:none;stroke-opacity:1"
             d="m 2700.84,2096.38 0,0 -17.9,-26.4 0,0 17.9,26.4 0,0 -17.9,-26.4 0,0 -25.8,16.33 0,0 -26.43,14.14 0,0 13.12,27.76 0,0 -13.12,-27.76 0,0 -12.87,-25.53 0,0 12.87,25.53 0,0 26.43,-14.14 0,0 -26.43,14.14 0,0 13.12,27.76 0,0 -13.12,-27.76 0,0 -26.69,11.89 0,0 -10.81,-25.6 0,0 10.81,25.6 0,0 -26.57,9.69 0,0 -26.12,7.58 0,0 -25.37,5.61 0,0 4.16,25.78 0,0 27.25,-4.46" /><path
             id="path84"
             style="fill:none;stroke:#0000ff;stroke-width:7.08699989;stroke-linecap:round;stroke-linejoin:round;stroke-miterlimit:10;stroke-dasharray:none;stroke-opacity:1"
             d="m 2557.37,2156.54 0,0 -27.25,4.46 0,0 -25.99,2.77 0,0 1.23,26.03 0,0 -25.88,-0.16 0,0 -0.07,-24.47 0,0 -1.55,-23.2 0,0 -21.88,1.53 0,0 -20.57,0.35 0,0 -0.48,-19.37 0,0 -1.64,-18.25 0,0 1.64,18.25 0,0 0.48,19.37 0,0 20.57,-0.35 0,0 -20.57,0.35 0,0 -0.89,20.34 0,0 -2.46,21.11 0,0 2.46,-21.11 0,0 -2.46,21.11 0,0 2.46,-21.11 0,0 0.89,-20.34 0,0 20.57,-0.35" /><path
             id="path86"
             style="fill:none;stroke:#0000ff;stroke-width:7.08699989;stroke-linecap:round;stroke-linejoin:round;stroke-miterlimit:10;stroke-dasharray:none;stroke-opacity:1"
             d="m 2455.98,2143.5 0,0 0.2,21.81 0,0 -1.34,22.81 0,0 24.13,1.75 0,0 -24.13,-1.75 0,0 1.34,-22.81 0,0 -0.2,-21.81 0,0 21.88,-1.53 0,0 -21.88,1.53 0,0 -20.57,0.35 0,0 20.57,-0.35 0,0 -1.53,-20.62 0,0 -19.43,1.5 0,0 -1.48,-18.27 0,0 -2.46,-17.09 0,0 16.84,-3.53 0,0 3.87,17.88 0,0 -18.15,2.82 0,0 18.15,-2.82 0,0 3.03,19.26 0,0 -3.03,-19.26 0,0 -18.15,2.82" /><path
             id="path88"
             style="fill:none;stroke:#0000ff;stroke-width:7.08699989;stroke-linecap:round;stroke-linejoin:round;stroke-miterlimit:10;stroke-dasharray:none;stroke-opacity:1"
             d="m 2433.64,2106.19 0,0 -17.19,1.61 0,0 -1.56,-16.16 0,0 -2.4,-15.06 0,0 14.81,-3.36 0,0 3.68,15.73 0,0 2.99,17.01 0,0 -2.99,-17.01 0,0 -16,2.76 0,0 1.73,16.15 0,0 -16.17,0.75 0,0 16.17,-0.75 0,0 -1.73,-16.15 0,0 -15.17,1.64 0,0 0.65,15.19 0,0 -0.44,16.03 0,0 17.03,0.66 0,0 18.29,-0.2 0,0 19.51,-1.28 0,0 1.27,20.71 0,0 -0.08,21.85 0,0 -1.65,22.82" /><path
             id="path90"
             style="fill:none;stroke:#0000ff;stroke-width:7.08699989;stroke-linecap:round;stroke-linejoin:round;stroke-miterlimit:10;stroke-dasharray:none;stroke-opacity:1"
             d="m 2454.39,2189.13 0,0 1.65,-22.82 0,0 -21.58,-1.29 0,0 -2.52,21.14 0,0 2.52,-21.14 0,0 0.95,-20.38 0,0 -0.44,-19.4 0,0 -1.61,-18.31 0,0 18.18,-2.75 0,0 -3.81,-17.92 0,0 -16.87,3.48 0,0 2.41,17.12 0,0 -2.41,-17.12 0,0 2.41,17.12 0,0 1.41,18.3 0,0 19.45,-1.43 0,0 -19.45,1.43 0,0 -1.41,-18.3 0,0 -2.41,-17.12 0,0 -16.09,2.24 0,0 16.09,-2.24 0,0 16.87,-3.48" /><path
             id="path92"
             style="fill:none;stroke:#0000ff;stroke-width:7.08699989;stroke-linecap:round;stroke-linejoin:round;stroke-miterlimit:10;stroke-dasharray:none;stroke-opacity:1"
             d="m 2447.73,2086.26 0,0 3.81,17.92 0,0 2.97,19.3 0,0 20.49,-3.19 0,0 -20.49,3.19 0,0 20.49,-3.19 0,0 21.38,-4.72 0,0 -21.38,4.72 0,0 21.38,-4.72 0,0 22.09,-6.44 0,0 22.52,-8.3 0,0 -9.32,-21.69 0,0 20.67,-10.28 0,0 20.34,-12.17 0,0 19.66,-13.99 0,0 -14.37,-18.39 0,0 14.37,18.39 0,0 15.37,20.09 0,0 20.42,-16.76 0,0 18.27,20.63 0,0 20.72,-19.78 0,0 -20.72,19.78" /><path
             id="path94"
             style="fill:none;stroke:#0000ff;stroke-width:7.08699989;stroke-linecap:round;stroke-linejoin:round;stroke-miterlimit:10;stroke-dasharray:none;stroke-opacity:1"
             d="m 2646.4,2066.66 0,0 19.67,22.34 0,0 22.46,-21.24 0,0 22.95,22.4 0,0 -24.06,23.02 0,0 22.9,25.82 0,0 -22.9,-25.82 0,0 24.06,-23.02 0,0 -22.95,-22.4 0,0 -22.46,21.24 0,0 21.12,24.16 0,0 -21.12,-24.16 0,0 -19.67,-22.34 0,0 19.67,22.34 0,0 21.12,24.16 0,0 -25.78,20.86 0,0 20.39,27.5 0,0 -29.09,19.81 0,0 -29.79,17.43 0,0 -16.05,-28.81 0,0 -15.62,-26.49 0,0 -15.09,-24.28" /><path
             id="path96"
             style="fill:none;stroke:#0000ff;stroke-width:7.08699989;stroke-linecap:round;stroke-linejoin:round;stroke-miterlimit:10;stroke-dasharray:none;stroke-opacity:1"
             d="m 2576.16,2119.18 0,0 15.09,24.28 0,0 -15.09,-24.28 0,0 -23.48,13.75 0,0 -23.73,11.66 0,0 23.73,-11.66 0,0 -12.55,-22.63 0,0 12.55,22.63 0,0 -23.73,11.66 0,0 -23.63,9.59 0,0 8.35,24.48 0,0 -25.11,7.09 0,0 25.11,-7.09 0,0 25.74,-9.11 0,0 -10.28,-24.9 0,0 -10.43,-22.83 0,0 -10.4,-20.88 0,0 19.79,-11.27 0,0 -11.93,-18.71 0,0 -11.39,-17.02 0,0 -16.46,10.31 0,0 9.64,17.48" /><path
             id="path98"
             style="fill:none;stroke:#0000ff;stroke-width:7.08699989;stroke-linecap:round;stroke-linejoin:round;stroke-miterlimit:10;stroke-dasharray:none;stroke-opacity:1"
             d="m 2497.95,2081.73 0,0 9.84,19.21 0,0 -9.84,-19.21 0,0 -9.64,-17.48 0,0 16.46,-10.31 0,0 -16.46,10.31 0,0 -16.75,8.7 0,0 7.89,17.62 0,0 -7.89,-17.62 0,0 16.75,-8.7 0,0 9.64,17.48 0,0 18.18,-10.62 0,0 -18.18,10.62 0,0 -9.64,-17.48 0,0 16.46,-10.31 0,0 -10.81,-15.45 0,0 10.81,15.45 0,0 15.87,-11.87 0,0 -15.87,11.87 0,0 -16.46,10.31 0,0 -9.35,-15.87 0,0 -8.99,-14.38" /><path
             id="path100"
             style="fill:none;stroke:#0000ff;stroke-width:7.08699989;stroke-linecap:round;stroke-linejoin:round;stroke-miterlimit:10;stroke-dasharray:none;stroke-opacity:1"
             d="m 2469.97,2034 0,0 -8.58,-13.01 0,0 -12.55,7.73 0,0 -6.98,-12.08 0,0 11.3,-7.43 0,0 8.25,11.68 0,0 8.72,12.91 0,0 -8.72,-12.91 0,0 12,-9.1 0,0 10.04,12.28 0,0 -10.04,-12.28 0,0 -9.34,-11.13 0,0 9.34,11.13 0,0 -9.34,-11.13 0,0 9.34,11.13 0,0 10.04,12.28 0,0 -10.04,-12.28 0,0 -12,9.1 0,0 -8.25,-11.68 0,0 -7.77,-10.55 0,0 -7.27,-9.52 0,0 7.27,9.52" /><path
             id="path102"
             style="fill:none;stroke:#0000ff;stroke-width:7.08699989;stroke-linecap:round;stroke-linejoin:round;stroke-miterlimit:10;stroke-dasharray:none;stroke-opacity:1"
             d="m 2445.39,1998.66 0,0 -7.27,-9.52 0,0 7.27,9.52 0,0 7.77,10.55 0,0 8.25,11.68 0,0 -12.47,7.86 0,0 12.47,-7.86 0,0 -12.47,7.86 0,0 -7.1,-12.01 0,0 -11.52,6.37 0,0 11.52,-6.37 0,0 7.1,12.01 0,0 -12.71,6.59 0,0 -5.94,-12.14 0,0 11.46,-6.49 0,0 -11.46,6.49 0,0 -11.55,5.32 0,0 -11.45,4.2 0,0 -3.77,-10.82 0,0 -3.94,-9.82 0,0 -9.28,3.52 0,0 -9.08,2.65" /><path
             id="path104"
             style="fill:none;stroke:#0000ff;stroke-width:7.08699989;stroke-linecap:round;stroke-linejoin:round;stroke-miterlimit:10;stroke-dasharray:none;stroke-opacity:1"
             d="m 2381.22,2018.25 0,0 -8.76,1.85 0,0 -8.33,1.16 0,0 -1.07,-7.8 0,0 -1.45,-7.19 0,0 1.45,7.19 0,0 -7.29,0.99 0,0 -6.87,0.47 0,0 6.87,-0.47 0,0 0.48,7.34 0,0 7.85,-0.48 0,0 0.49,8.39 0,0 -0.49,-8.39 0,0 -7.85,0.48 0,0 -7.32,0.01 0,0 -6.78,-0.38 0,0 0.28,-6.34 0,0 -5.93,-0.2 0,0 5.93,0.2 0,0 -0.18,-5.98 0,0 -0.57,-5.58 0,0 -0.87,-5.16" /><path
             id="path106"
             style="fill:none;stroke:#0000ff;stroke-width:7.08699989;stroke-linecap:round;stroke-linejoin:round;stroke-miterlimit:10;stroke-dasharray:none;stroke-opacity:1"
             d="m 2340.81,1998.36 0,0 5.05,-1.22 0,0 5.22,-1.71 0,0 1.91,5.55 0,0 -1.91,-5.55 0,0 5.31,-2.24 0,0 5.31,-2.8 0,0 -5.31,2.8 0,0 5.31,-2.8 0,0 3.14,5.57 0,0 3.2,6.2 0,0 -6.53,2.89 0,0 2.49,6.84 0,0 -7.07,2.08 0,0 -6.82,1.46 0,0 -6.48,0.91 0,0 -0.84,-6.06 0,0 5.96,-1.26 0,0 6.2,-1.81 0,0 -2.17,-5.99 0,0 5.72,-2.51 0,0 -5.72,2.51" /><path
             id="path108"
             style="fill:none;stroke:#0000ff;stroke-width:7.08699989;stroke-linecap:round;stroke-linejoin:round;stroke-miterlimit:10;stroke-dasharray:none;stroke-opacity:1"
             d="m 2352.78,2001.22 0,0 -5.64,1.94 0,0 1.57,5.84 0,0 1.32,6.38 0,0 6.81,-1.46 0,0 -1.88,-6.64 0,0 -2.05,-6.04 0,0 -5.68,1.83 0,0 1.47,5.86 0,0 -5.99,1.09 0,0 5.99,-1.09 0,0 6.24,-1.61 0,0 1.8,6.66 0,0 -1.8,-6.66 0,0 1.8,6.66 0,0 7.1,-2 0,0 2.22,7.56 0,0 -2.22,-7.56 0,0 -2.41,-6.86 0,0 -2.52,-6.21 0,0 5.9,-2.86 0,0 5.83,-3.49" /><path
             id="path110"
             style="fill:none;stroke:#0000ff;stroke-width:7.08699989;stroke-linecap:round;stroke-linejoin:round;stroke-miterlimit:10;stroke-dasharray:none;stroke-opacity:1"
             d="m 2370.64,1992.56 0,0 3.9,6.08 0,0 -6.48,3.64 0,0 3.3,6.87 0,0 -3.3,-6.87 0,0 3.3,6.87 0,0 7.22,-3.68 0,0 -7.22,3.68 0,0 -3.3,-6.87 0,0 3.3,6.87 0,0 -3.3,-6.87 0,0 3.3,6.87 0,0 7.22,-3.68 0,0 7.11,-4.44 0,0 -4.69,-6.64 0,0 -4.41,-5.96 0,0 -5.77,3.97 0,0 3.73,6.19 0,0 -3.73,-6.19 0,0 -5.91,3.33 0,0 5.91,-3.33 0,0 -3.56,-5.55" /><path
             id="path112"
             style="fill:none;stroke:#0000ff;stroke-width:7.08699989;stroke-linecap:round;stroke-linejoin:round;stroke-miterlimit:10;stroke-dasharray:none;stroke-opacity:1"
             d="m 2367.26,1986.85 0,0 5.15,-3.77 0,0 -5.15,3.77 0,0 -5.33,3.19 0,0 -5.39,2.62 0,0 5.39,-2.62 0,0 5.33,-3.19 0,0 -5.33,3.19 0,0 5.33,-3.19 0,0 -5.33,3.19 0,0 -5.39,2.62 0,0 2.31,5.67 0,0 -2.31,-5.67 0,0 5.39,-2.62 0,0 2.93,5.67 0,0 2.96,6.31 0,0 6.64,-3.29 0,0 -3.6,-6.27 0,0 3.6,6.27 0,0 -3.6,-6.27 0,0 -5.98,3.21 0,0 -2.88,-5.7" /><path
             id="path114"
             style="fill:none;stroke:#0000ff;stroke-width:7.08699989;stroke-linecap:round;stroke-linejoin:round;stroke-miterlimit:10;stroke-dasharray:none;stroke-opacity:1"
             d="m 2362,1989.97 0,0 -2.82,-5.12 0,0 -4.88,2.53 0,0 4.88,-2.53 0,0 2.82,5.12 0,0 5.36,-3.15 0,0 -5.36,3.15 0,0 5.36,-3.15 0,0 -3.36,-5.01 0,0 4.63,-3.52 0,0 -3.63,-4.27 0,0 3.9,-3.7 0,0 4.08,3.92 0,0 -4.3,4.05 0,0 3.96,4.73 0,0 4.81,-4.38 0,0 4.41,-4.85 0,0 -4.82,-3.99 0,0 3.57,-4.75 0,0 5.16,3.46 0,0 -3.86,5.28 0,0 5.36,4.31" /><path
             id="path116"
             style="fill:none;stroke:#0000ff;stroke-width:7.08699989;stroke-linecap:round;stroke-linejoin:round;stroke-miterlimit:10;stroke-dasharray:none;stroke-opacity:1"
             d="m 2387.27,1978.1 0,0 4.23,-5.81 0,0 -4.23,5.81 0,0 -4.78,5.41 0,0 4.78,-5.41 0,0 -4.78,5.41 0,0 5.4,5.28 0,0 -5.4,-5.28 0,0 4.78,-5.41 0,0 -5.36,-4.31 0,0 -4.87,-3.95 0,0 3.53,-4.78 0,0 5.19,3.4 0,0 5.75,3.67 0,0 3.48,-6.17 0,0 2.83,-6.31 0,0 6.67,2.51 0,0 7.38,2.47 0,0 -7.38,-2.47 0,0 2.15,-6.98 0,0 1.5,-6.82 0,0 -6.43,-1.3" /><path
             id="path118"
             style="fill:none;stroke:#0000ff;stroke-width:7.08699989;stroke-linecap:round;stroke-linejoin:round;stroke-miterlimit:10;stroke-dasharray:none;stroke-opacity:1"
             d="m 2401.71,1947.06 0,0 -5.85,-1.46 0,0 5.85,1.46 0,0 -1.68,6.21 0,0 1.68,-6.21 0,0 -1.68,6.21 0,0 6.57,1.94 0,0 1.57,-6.82 0,0 0.96,-6.58 0,0 -6.17,-0.82 0,0 6.17,0.82 0,0 0.43,-6.27 0,0 -0.43,6.27 0,0 0.43,-6.27 0,0 6.32,0 0,0 -6.32,0 0,0 -0.02,-5.9 0,0 -0.4,-5.5 0,0 5.43,-0.78 0,0 0.88,5.81 0,0 -5.89,0.5 0,0 -0.44,-5.5" /><path
             id="path120"
             style="fill:none;stroke:#0000ff;stroke-width:7.08699989;stroke-linecap:round;stroke-linejoin:round;stroke-miterlimit:10;stroke-dasharray:none;stroke-opacity:1"
             d="m 2409.12,1924.17 0,0 -0.73,-5.08 0,0 -4.75,0.65 0,0 -0.58,-4.44 0,0 4.35,-0.88 0,0 -1.14,-4.22 0,0 1.14,4.22 0,0 -4.35,0.88 0,0 0.58,4.44 0,0 4.75,-0.65 0,0 4.95,-1.07 0,0 1.22,5.29 0,0 -5.41,0.88 0,0" /><path
             id="path122"
             style="fill:#000000;fill-opacity:1;fill-rule:evenodd;stroke:none"
             d="m 2409.15,1924.19 43.02,58.94 -36.92,-9.71 -33.41,18.43 27.31,-67.66" /><path
             id="path124"
             style="fill:none;stroke:#0000ff;stroke-width:7.08699989;stroke-linecap:round;stroke-linejoin:round;stroke-miterlimit:10;stroke-dasharray:none;stroke-opacity:1"
             d="m 2409.15,1924.19 43.02,58.94 -36.92,-9.71 -33.41,18.43 27.31,-67.66" /></g></g></g></g></svg>