<?xml version="1.0" encoding="UTF-8" standalone="no"?>
<!-- Created with Inkscape (http://www.inkscape.org/) -->
<svg id="svg2" xmlns:rdf="http://www.w3.org/1999/02/22-rdf-syntax-ns#" xmlns="http://www.w3.org/2000/svg" xml:space="preserve" height="717.5" viewBox="0 0 848.75 717.5" width="848.75" version="1.1" xmlns:cc="http://creativecommons.org/ns#" xmlns:dc="http://purl.org/dc/elements/1.1/"><metadata id="metadata8"><rdf:RDF><cc:Work rdf:about=""><dc:format>image/svg+xml</dc:format><dc:type rdf:resource="http://purl.org/dc/dcmitype/StillImage"/><dc:title/></cc:Work></rdf:RDF></metadata><defs id="defs6"><clipPath id="clipPath18" clipPathUnits="userSpaceOnUse"><path id="path20" d="m0 6v5728h6785v-5728h-6785z"/></clipPath></defs><g id="g10" transform="matrix(1.25,0,0,-1.25,0,717.5)"><g id="g12" transform="scale(.1)"><g id="g14"><g id="g16" clip-path="url(#clipPath18)"><g stroke-linejoin="round" stroke-linecap="round" stroke-miterlimit="10" stroke-width="7.087" fill="none"><path id="path22" d="m3404.2 1438.4 197.26 13.79 193.42 41.11 185.82 67.63 174.6 92.84 159.98 116.24 142.25 137.36 121.74 155.83 98.88 171.25 74.07 183.34 47.84 191.88 20.67 196.66-6.9 197.62-34.34 194.75-61.11 188.06-86.68 177.74-110.58 163.93-132.32 146.96-151.48 127.11-167.7 104.79-180.65 80.43-190.08 54.5-195.82 27.52h-197.75l-195.82-27.52-190.09-54.5-180.64-80.43-167.7-104.79-151.48-127.11-132.32-146.96-110.58-163.93-86.69-177.74-61.1-188.06-34.34-194.75-6.9-197.62 20.67-196.66 47.84-191.88 74.07-183.34 98.88-171.25 121.74-155.83 142.25-137.36 159.98-116.24 174.59-92.84" stroke="#000"/><path id="path24" d="m2827.7 1561 185.82-67.63 193.43-41.11 197.27-13.79" stroke="#000"/><g stroke="#00f"><path id="path26" d="m3404.2 2855.8h70.8l0.18-70.63 70.29 0.18 0.34 70.1-0.34-70.1 0.34 70.1 1.05 70.1 1.74 69.72-1.74-69.72 1.74 69.72-1.74-69.72-1.05-70.1-0.34-70.1 0.34-69.76-0.34 69.76-70.29-0.18 0.53-70.28 0.86-69.57-69.21-1.55 69.21 1.55-69.21-1.55 2.04-68.68"/><path id="path28" d="m3409.4 2575.1 68.02 1.34 0.83-67.21 1.12-65.57 64.46 0.33 0.96 65.07-66.22 0.51 66.22-0.51 65.5-2.09 64.41-3.59 63-5.01 6.55 62.77 8.34 63.69 10.16 64.27 11.97 64.43 63.46-12.75 61.46-12.46 13.39 60.16 15.49 59.41 57.89-15.92 55.77-14.78-13.06-55.12"/><path id="path30" d="m4029.1 2762.1-10.62-55.8 54.71-9.25-7.81-53.48 7.81 53.48-54.71 9.25-57.23 9.48-8.39-58.47-5.98-58.22-3.61-57.55-58.19 1.89 58.19-1.89-58.19 1.89-60.24 0.68 0.95 61.82 61.37-2.38-1.77-59.83-60.25 0.09 0.33 61.82 61.4-1.76 3.32 60.76-3.32-60.76"/><path id="path32" d="m3886.9 2603.8-1.19-59.85 0.84-58.56 2.69-56.93 55.13 2.64-55.13-2.64 55.13 2.64-0.73 55.01 0.73-55.01-55.13-2.64-56.81-4.56 56.81 4.56-56.81-4.56-58.18-6.62-7.15 59.8-5.98 61.73 5.98-61.73-61.34-7.56 8.94-60.77-59.97-10.42 11.65-59.03 11.82-56.63"/><path id="path34" d="m3678.2 2282.7-55.33-13.13-54.95-15.62 16.41-53.4-16.41 53.4-54.14-17.99-19.74 54.66 56.27 19.31 17.79-55.62 54.82 16.16-54.82-16.16 54.82 16.16-54.82-16.16 54.82 16.16 55.25 13.69-55.25-13.69 14.72-53.85-14.72 53.85 55.25 13.69 12.42-54.03 52.7 11.08-52.7-11.08"/><path id="path36" d="m3690.6 2230.2 52.7 11.08 9.92-51.27 49.73 8.72-7.02 50.77 7.02-50.77-49.73-8.72 10.14-48.58-10.14 48.58 10.14-48.58-47.19-11.58 12.75-45.75-12.75 45.75 12.75-45.75 44.53 11.2 9.84-43.22-9.84 43.22 44.48 8.48-44.48-8.48 9.84-43.22 9.79-40.53-9.79 40.53"/><path id="path38" d="m3783.2 2052 41.82 8.49-6.93 43.03 6.93-43.03-6.93 43.03 44.02 5.36 4.53-42.32 5.29-39.78 38.14 4.36-38.14-4.36-5.29 39.78 40.6 3.68 3-38.89-38.09-4.74 38.09 4.74-3 38.89-40.6-3.68 40.6 3.68 3-38.89 3.93-36.49-3.93 36.49 3.93-36.49"/><path id="path40" d="m3914.2 1994.9 34.86 3.14-34.86-3.14-3.93 36.49-3 38.89-40.6-3.68 5.29-39.78 38.14 4.36-2.61 38.92-1.43 41.27-43.08-1.93-2.57 44.91 2.57-44.91-2.57 44.91-1.27 47.3-49.17-1.73 3.48-48.55-3.48 48.55 3.48-48.55 46.74 2.74 45.42 0.36 0.03-43.54"/><path id="path42" d="m3905.7 2110.9-0.03 43.54 1.62 45.68 3.5 47.66-3.5-47.66-1.62-45.68 0.03-43.54 41.66-0.33-41.66 0.33 1.45-41.26 2.64-38.91 37.17 2-0.17 37.65 0.17-37.65-0.17 37.65 1.37 39.75-41.61 1.2-43.12-1.01-1.57 44.97-46.8-2.1 3.82-46.11-45.18-5.59"/><path id="path44" d="m3773.7 2101.5-6.69 46.8-48.34-7.78 9.17-47.12 9.18-44.39 43 7.8-43-7.8-9.18 44.39 9.18-44.39-9.18 44.39 9.18-44.39-9.18 44.39 9.18-44.39-9.18 44.39-9.17 47.12 48.34 7.78-6.12 49.46 50.35 4.52 49.23 2.04-49.23-2.04-2.66 51.06 51.54 0.9"/><path id="path46" d="m3860.1 2254.2 1.06 51.81-1.06-51.81-51.54-0.9-1.35 53.4-55.19-1.73-2.26 56.94 2.26-56.94-2.26 56.94 57.32 0.61 55.69-1.34 3.25 55.61-57.39 3.5-59.22 1.87 1.79 60.87-1.79-60.87-0.26-59.08 1.12-57.06-1.12 57.06 1.12-57.06-56.5-2.91-3.64 58.15"/><path id="path48" d="m3690.1 2361.3-59.69-4.27-5.1 61.14-4.43 63.19-3.67 65-66.17-4.04 5.03-65.64 64.51 4.34 3.81-63.23-3.81 63.23 63.71 2.55-63.71-2.55 3.81-63.23-62.53-5.21-6.08 63.75 64.46 4.99 4.44-63.2-62.48-5.83-62.73-7.9 62.73 7.9-6.72 63.68-64.74-7.49"/><path id="path50" d="m3490.8 2468.5-64.66-9.31 9.97-63.58 62.79 8.72-62.79-8.72-9.97 63.58-64.2-11.09-12.37 64.63-13.2 66.02-66.15-14.15 14.07-65.08-63.84-14.12-62.35-15.25-16.68 61.92-61.36-17.87 17.11-60.08 15.08-59.24-57.66-14.63-55.44-15.61 14.83-53.81-52.11-14.16-49.59-15.05"/><path id="path52" d="m2912.2 2281.6 14.13-47.91 48.69 12.28-48.69-12.28-14.13 47.91-16.74 48.56 50.07 17.91 16.44-51.09-49.45-15.55 14.59-47.78 48.6 12.76-48.6-12.76 12.05-46.81-12.05 46.81 12.05-46.81 47.36 10.13 8.31-47.68-45.74-8.13-43.51-9.69 9.2-41.66 42 7.26-42-7.26"/><path id="path54" d="m2914.8 2089.8-39.81-8.8 39.81 8.8 7.02-40.12 40.23 5.07 3.28-40.09-3.28 40.09-5.01 42.13 44.03 4.96 3.13-43.82-41.92-3.45-5.42 42.06 43.97 5.41-43.97-5.41-41.98-7.24 41.98 7.24-7.4 43.89 7.4-43.89-7.4 43.89-9.6 45.5-11.99 46.8-46.08-13.68"/><path id="path56" d="m2881.8 2219.2-43.46-14.41 13.39-41.82-13.39 41.82 13.39-41.82-40.15-12.48-37.58-13.11-14.63 36.41 14.63-36.41 12.07-36.02 9.61-35.28 35.92 7.85 38.11 6.5-38.11-6.5-8.36 37.68 8.36-37.68 38.11 6.5-38.11-6.5 6.17-36.32 36.51 4.31-36.51-4.31 36.51 4.31"/><path id="path58" d="m2874.3 2041.9-36.51-4.31-34.56-5.88 5.57-32.85-31.18-5.31 31.18 5.31-31.18-5.31 5.02-29.57-28.01-4.76-26.17-5.89-7.34 25.63-24.96-8.61-9.86 24.09-11.94 24.15 11.94-24.15 9.86-24.09 24.96 8.61-9.39 26.23-11.57 26.52-13.81 26.46-16.05 26.02 16.05-26.02"/><path id="path60" d="m2686.3 2058.2 27.44 15.14-27.44-15.14 27.44 15.14-16.5 28.38-26.95-17.29 15.81-26.17-15.81 26.17 26.95 17.29-26.95-17.29 26.95 17.29-18.8 27.66 28.26 20.47-22.13 28.76 22.13-28.76-22.13 28.76 22.13-28.76 30.54 21.57 20.89-32.17-31.32-19.32-20.15 29.66-22.39 28.53"/><path id="path62" d="m2684.3 2178.1-24.42 27-26.14 25.14 26.14-25.14-25.27-24.42 25.27 24.42-26.14 25.14 24.81 27.97-29.67 24.34-30.62 21.94-20.41-29.72 20.41 29.72-20.41-29.72 28.1-21.28-21.89-26.51-25.92 20.24 25.92-20.24-25.92 20.24 19.47 27.51-28.93 18.58 28.93-18.58 20.07 29.91"/><path id="path64" d="m2597.7 2304.6 30.86-21.59-30.86 21.59 30.86-21.59 29.96-24.01 28.66-26.27-26.48-26.9 26.48 26.9 28.16 28.9 29.04-29.98-29.93-27.21-27.95-25.48-26.05-23.79-24.22-22.17 20.46-24.05 18.46-25.28-18.46 25.28-23.74-18.88-19.18 22.12-20.6-19.29-19.04-17.83-17.57-16.46"/><path id="path66" d="m2556.5 2058.6-16.18-15.17 13.86-16.08 12.37-17.03 18.25 11.9-13.09 18.73 13.09-18.73-18.25-11.9 10.75-17.69 18.78 10.07 9.31-19.74 20.69 8.36 22.57 8.16-22.57-8.16-9.25 21.66-20.71-10.13 20.71 10.13-11.18 21.55-20.43-11.91-18.63-11.39 10.28-18.01-17.36-9.28"/><path id="path68" d="m2559.6 1984-15.77-8.95 15.77 8.95-9.91 16.33 16.85 10.99-12.11 17.3-16.15-12.45-12.68 14.94-13.92 13.82-14.92 12.5-11.41-14.61-14.23 10.36-14.71 8.91 14.71-8.91 9.87 15.25 15.76-10.86-11.27-14.73 11.27 14.73 11.97 16.22-17.31 11.5-17.68 9.81 17.68-9.81"/><path id="path70" d="m2491.4 2085.2-17.68 9.81 17.68-9.81 17.31-11.5-17.31 11.5 10.84 18.41-19.4 10.09 19.4-10.09 11.12 20.23-11.12-20.23 11.12 20.23-11.12-20.23-10.84-18.41-10.45-16.73 10.45 16.73 17.31-11.5-17.31 11.5 17.31-11.5-11.97-16.22 15.06-12.35 13.54 15.31 14.56 16.78"/><path id="path72" d="m2539.9 2077.3-18.03 14.25-13.03-17.6 16.35-13.44 15.32-14.88 14.03-16.11 12.54-17.09-12.54 17.09 17.41 13.8 13.47-18.65-18.2-12.26-16.57-11.57 16.57 11.57-16.57-11.57-11.93 15.41 11.93-15.41 16.57 11.57 11.1-17.68 9.41-18.07-17.35-8.49 17.35 8.49-9.41 18.07"/><path id="path74" d="m2578.3 1994.7-11.1 17.68-16.57-11.57-15.09-10.85 9.79-14.69-14.25-8.85-9.28 13.29 9.28-13.29 7.94-13.76 14.61 7.36-8.18 15.22-14.35-8.71-13-8.27-11.78-7.81 11.78 7.81 7.42-12.56 13.36 6.89-13.36-6.89-12.1-6.67-7.11 11.33-10.58-7.43 10.58 7.43"/><path id="path76" d="m2506.3 1950.4-10.58-7.43 6.67-10.27 5.6-10.56-10.11-5.01 10.11 5.01-10.11-5.01-5.44 9.5 5.44-9.5 10.11 5.01 11.19 5.1-5.71 11.71-11.06-6.16 11.06 6.16 12.24 6.4 5.85-12.9-5.85 12.9 5.85-12.9-12.3-5.24 12.3 5.24-12.3-5.24-11.14-5.2"/><path id="path78" d="m2508.1 1922-5.7 10.5-6.75 10.2-9.48-7.01-7.2 8.75 7.2-8.75-8.59-6.52-7.76-6.03 7.76 6.03-6.67 7.9 7.97 7.37 7.29-8.67-7.29 8.67-8.07 7.99-7.29-8.02 7.32-7.34 8.04 7.29 7.19-8.74-7.19 8.74 7.19-8.74 9.49 7-9.49-7"/><path id="path80" d="m2486.1 1935.6-7.19 8.74 8.85 7.95 9.72 8.67-9.72-8.67-8.72 8.89 8.86 9.55 9.59-9.68 10.58 9.55 9.42-11.47-9.42 11.47 11.61 10.38-11.34 11.67-12.28 10.59 10.35 13.31 11.07 14.64-15.67 10.68-9.69-15.18 9.69 15.18 15.67-10.68-15.67 10.68-16.11 9.14"/><path id="path82" d="m2485.7 2051-16.27 7.57-6.84-15.51-14.75 6.15 5.32 15.37-15.85 4.46-4.05-14.95 4.05 14.95-15.29 3.17 2.18 15.53-2.18-15.53 15.29-3.17-4.05-14.95 14.48-4.93-14.48 4.93 14.48-4.93 5.47 15.31-15.8 4.63-15.28 3.33 2.35 15.53-15.64 1.4 15.64-1.4"/><path id="path84" d="m2424.5 2088-15.64 1.4 15.64-1.4 1.46 16.64 17.71-1.51-17.71 1.51 0.39 17.68-0.89 18.58 0.89-18.58 18.78-0.27-18.78 0.27-0.39-17.68 17.71-1.51-17.71 1.51-16.63 0.47-0.58 16.47-16.2-1.52-2.47 15.8 16.7 2.97-3.51 17.61-17-4.36 17 4.36"/><path id="path86" d="m2403.2 2156.4 3.51-17.61 2.05-17.15-2.05 17.15 18.15 2.5 19.66 1.87 0.77-19.98 20.15-0.47 0.37 21.39 22.67-0.22-22.67 0.22-21.19-0.83-2.08 20.82-3.74 21.45-5.55 21.77 22.8 6.44 24.78 6.31-24.78-6.31-7.4 23.79-22.75-8.28-9.09 21.59-10.9 20.97"/><path id="path88" d="m2405.9 2271.8-19.73-11.3 19.73 11.3 21.42 12.26-21.42-12.26 10.9-20.97-10.9 20.97-12.58 20.04 12.58-20.04 10.9-20.97-10.9 20.97 21.42 12.26-21.42-12.26 10.9-20.97-20.45-9.7-18.74-9.09-9.56 17.58-16.48-9.87 16.48 9.87 9.56-17.58 7.98-18.19 19.23 7.31"/><path id="path90" d="m2404.9 2221.2-8.32 19.91-18.84-8.9-17.25-8.33 17.25 8.33 7.8-18.26 6.16-18.54 19.41 5.3 21.16 5.16 4.15-21.89 22.53 2.95-3.52 23.74 3.52-23.74-3.52 23.74-5.45 24.19-23.32-6.48-7.46 22.29 7.46-22.29 5.56-22.29-21.26-4.77 4.03-20.23-4.03 20.23"/><path id="path92" d="m2410.9 2201.3 21.26 4.77-5.56 22.29 23.32 6.48-7.46 24.31-23.25-8.35-21.34-8.05-8.76 20.2 20.78 9.97-11.21 21.29 11.21-21.29 22.62 10.66 10.01-23.86-23.09-8.83 7.7-22.25-7.7 22.25-9.59 21.87 22.5 10.88-12.2 23.03 12.2-23.03 24.43 11.62-24.43-11.62"/><path id="path94" d="m2432.4 2283.6-22.5-10.88-11.41 21.16 11.41-21.16-11.41 21.16-19.88-11.75 19.88 11.75 11.41-21.16-20.69-10.16-10.63 19.42 10.63-19.42-18.99-9.47 8.32-18.47 6.66-18.83-6.66 18.83-8.32 18.47 18.99 9.47 8.95-20.12-8.95 20.12-10.63 19.42 10.63-19.42 8.95-20.12"/><path id="path96" d="m2398.1 2242.5 7.17-20.48 21.48 6.28 5.33-22.34 23.13 4.19 25.04 3.66-25.04-3.66-4.92 24.29-6.93 24.49 25.52 8.01-25.52-8.01-23.47-7.86 23.47 7.86-8.97 24.34-23.16-9.72-10.39 21.87-12.15 21.01 21.27 13.57 13.33-22.66-13.33 22.66 13.33-22.66-13.33 22.66"/><path id="path98" d="m2410 2330-21.27-13.57 21.27 13.57-21.27-13.57-13.72 19.84-18.5-13.73 12.37-18.47-18.29-11.14-11.32 17.04-12.53 15.83 15.64 13.77-15.64-13.77-13.49 14.43 13.49-14.43 12.53-15.83-15.86-11.38 10.19-15.78-10.19 15.78-14.7-10.27 9.17-14.6 15.68 8.96-10.02 15.89"/><path id="path100" d="m2323.5 2298.6 10.02-15.89 8.66-16.73 7.14-17.3 18.3 6.5 5.79-19.19 20.07 4.89-20.07-4.89-18.39-4.96-5.75 17.52-7.31 17.22 17.73 8.37 19.34 9-19.34-9-17.73-8.37 17.73 8.37 19.34 9 8.43-20.45-8.43 20.45 8.43-20.45-19.78-7.38 6.37-19.04"/><path id="path102" d="m2374.1 2236.2-18.28-5.5-16.72-5.39 4.6-16-4.6 16 16.72 5.39 18.28 5.5-6.37 19.04-18.1-7.04 18.1 7.04 6.37-19.04-18.28-5.5-16.72-5.39-6.04 15.84 16.4 6.98-7.96 16.89 7.96-16.89 6.42-17.31-6.42 17.31-16.4-6.98-14.98-6.56 5.67-14.47"/><path id="path104" d="m2323.7 2220.1-5.67 14.47 5.67-14.47 4.33-14.65 2.99-14.57-2.99 14.57-4.33 14.65-13.94-4.91-5.43 13.16 5.43-13.16-12.69-4.7 4.01-12.18 12.81 3.43-4.04 13.41-5.29 13.23 5.29-13.23 4.04-13.41 14.06 3.38 15.39 3.25-15.39-3.25-4 14.73-5.36 14.62"/><path id="path106" d="m2318.6 2234.5-6.68 14.25-7.93 13.64 7.93-13.64 14.62 7.64-14.62-7.64 14.62 7.64-14.62-7.64-13.38-7.03 6.14-13.03 13.88 5.71 15.22 6.04 16.67 6.38-16.67-6.38 16.67 6.38-7.31 17.23 17.76 8.37 7.85-18.79-18.18-6.87 18.18 6.87 6.18-19.11-6.18 19.11"/><path id="path108" d="m2368.8 2253.6 6.18-19.11-18.33-5.32-16.76-5.24 4.45-16.03-4.45 16.03-5.92 15.89-7.34 15.49 15.89 8.37-9.42 16.19-15.12-9.62-13.91-8.73 7.73-13.7-7.73 13.7 7.73-13.7-13.42-6.84-12.25-6.29 5.48-11.92-11.55-4.76 4.09-11.13-4.09 11.13-10.51-4.47"/><path id="path110" d="m2269.5 2213.6-4.79 9.83-9.19-5.02-5.18 8.53-5.9 7.94-7.32-5.87-6.77-5.24-5.2 6.2 5.2-6.2 6.77 5.24-5.81 6.72-6.16-5.7 6.16 5.7-6.16-5.7 5.14-6.26 4.61-6.79-6.73-4.09-4.16 6.2-5.73-4.19 3.72-5.69-5.62-3.29-3.36 5.19"/><path id="path112" d="m2213 2211.1-3.8 4.79 3.8-4.79 3.36-5.19 2.86-5.49 2.32-5.71 6.06 2.07-2.43 6.32 2.43-6.32 6.71 2.16 1.84-7.05-6.71-1.52 6.71 1.52 1.17-6.98-6.6-0.93 6.6 0.93 7.23 0.74 0.31-7.43-0.31 7.43 0.31-7.43 7.56-0.19 0.09 8.06"/><path id="path114" d="m2252.5 2186.1-0.61 8.42 8.94 0.85 0.32-9.17-0.32 9.17 0.32-9.17 9.32-0.29-0.88-9.41 0.88 9.41-0.88-9.41-8.81 0.92-8.18 0.41-0.14 8.06 0.14-8.06-0.14 8.06 0.14-8.06-0.14 8.06 8.6 0.31-0.51 9.14 9.72 0.75-1.02 10.31-1.96 10.54"/><path id="path116" d="m2267.3 2216.9 1.96-10.54 10.94 1.35-10.94-1.35 10.94 1.35 0.72-11.24-10.58-0.47 0.25-9.94-9.34-0.08-0.08-8.75 0.08 8.75-0.08-8.75-8.2 0.2 8.2-0.2 8.86-0.67-8.86 0.67-0.72-8.29 8.29-1.29-8.29 1.29-1.25-7.74 1.25 7.74 8.29-1.29"/><path id="path118" d="m2268.8 2167.7 1.33 8.86 9.47-1.36 10.04-2.08 2.19 10.73-2.19-10.73 2.19 10.73 11.45-2.3 2.43 12.21-2.43-12.21 2.43 12.21-2.43-12.21-11.45 2.3 1.53 11.52 0.72 12.25-12.09-0.03-11.15-0.51 11.15 0.51-0.78 11.83-1.84 12.16-2.95 12.3-4.1 12.22"/><path id="path120" d="m2272.3 2256.1 4.1-12.22-4.1 12.22-5.24 11.94 5.24-11.94 4.1-12.22 2.95-12.3 12.84 2.3 1.62-13.28-12.56-1.23 12.56 1.23 0.5-12.86-12.11-0.26"/></g></g><path id="path122" d="m2282.2 2207.4 65.26-32.64-15.7 34.79 12.63 36.02-62.19-38.17" fill-rule="evenodd"/><path id="path124" stroke-linejoin="round" d="m2282.2 2207.4 65.26-32.64-15.7 34.79 12.63 36.02-62.19-38.17" stroke="#00f" stroke-linecap="round" stroke-miterlimit="10" stroke-width="7.087" fill="none"/></g></g></g></g></svg>
