<?xml version="1.0" encoding="UTF-8" standalone="no"?>
<!-- Created with Inkscape (http://www.inkscape.org/) -->
<svg id="svg3466" xmlns:rdf="http://www.w3.org/1999/02/22-rdf-syntax-ns#" xmlns="http://www.w3.org/2000/svg" xml:space="preserve" height="717.5" viewBox="0 0 848.75 717.5" width="848.75" version="1.1" xmlns:cc="http://creativecommons.org/ns#" xmlns:dc="http://purl.org/dc/elements/1.1/"><metadata id="metadata3472"><rdf:RDF><cc:Work rdf:about=""><dc:format>image/svg+xml</dc:format><dc:type rdf:resource="http://purl.org/dc/dcmitype/StillImage"/><dc:title/></cc:Work></rdf:RDF></metadata><defs id="defs3470"><clipPath id="clipPath3482" clipPathUnits="userSpaceOnUse"><path id="path3484" d="m0 6v5728h6785v-5728h-6785z"/></clipPath></defs><g id="g3474" transform="matrix(1.25,0,0,-1.25,0,717.5)"><g id="g3476" transform="scale(.1)"><g id="g3478"><g id="g3480" clip-path="url(#clipPath3482)"><g stroke-linejoin="round" stroke="#000" stroke-linecap="round" stroke-miterlimit="10" stroke-width="7.087" fill="none"><path id="path3486" d="m3404.2 1438.4 197.26 13.79 193.42 41.11 185.82 67.63 174.6 92.84 159.98 116.24 142.25 137.36 121.74 155.83 98.88 171.25 74.07 183.34 47.84 191.88 20.67 196.66-6.9 197.62-34.34 194.75-61.11 188.06-86.68 177.74-110.58 163.93-132.32 146.96-151.48 127.11-167.7 104.79-180.65 80.43-190.08 54.5-195.82 27.52h-197.75l-195.82-27.52-190.09-54.5-180.64-80.43-167.7-104.79-151.48-127.11-132.32-146.96-110.58-163.93-86.69-177.74-61.1-188.06-34.34-194.75-6.9-197.62 20.67-196.66 47.84-191.88 74.07-183.34 98.88-171.25 121.74-155.83 142.25-137.36 159.98-116.24 174.59-92.84"/><path id="path3488" d="m2827.7 1561 185.82-67.63 193.43-41.11 197.27-13.79"/><path id="path3490" d="m3404.2 2855.8h688.66l13.29-171.52 39.52-167.44 64.83-159.36-124.05-79.67-104.26-104.26-79.67-124.05-159.36 64.83-167.44 39.53-171.52 13.28v688.66h818.33l10.57-131.08 31.42-127.69 51.48-121.02 70.2-111.21-68.64-65.16-51.83-79.18-32.25-88.98-10.95-94.01-94.01-10.95-88.98-32.25-79.18-51.83-65.16-68.64-111.21 70.2-121.02 51.48-127.69 31.42-131.08 10.57v818.33h878.37l11.81-128.41 35.02-124.12 57.06-115.66 77.19-103.31"/><path id="path3492" d="m4463.6 2384.3-53.52-62.85-35.26-74.64-14.55-81.26 7.16-82.24-66.4-25.04-56.76-42.59-42.59-56.76-25.04-66.4-82.24 7.16-81.26-14.55-74.64-35.26-62.85-53.52-103.31 77.19-115.66 57.06-124.11 35.02-128.42 11.81v878.37h912.23l12.39-125.84 36.71-121 59.6-111.52 80.22-97.75-45.02-59.87-26.63-70.03-6.14-74.66 14.82-73.43-51-27.44-40.29-41.6-25.79-51.86-8.87-57.23-57.23-8.87-51.85-25.79-41.6-40.29-27.45-51"/><path id="path3494" d="m4138.3 1817.6-73.43 14.82-74.66-6.14-70.03-26.63-59.87-45.02-97.75 80.22-111.52 59.61-121 36.7-125.84 12.39v912.23h933.5l12.72-123.81 37.6-118.65 60.94-108.53 81.72-93.88-39.86-57.47-21.65-66.48-1.62-69.91 18.54-67.43-42.15-27.3-31.38-39.22-17.39-47.13-1.63-50.2-56.45-20.43-42.45-42.45-20.43-56.45-50.2-1.62-47.12-17.4-39.23-31.38-27.3-42.15-67.43 18.54-69.91-1.62-66.48-21.65-57.46-39.86"/><path id="path3496" d="m3849.1 1729.3-93.89 81.72-108.53 60.94-118.65 37.61-123.81 12.71v933.5h947.87l12.9-122.27 38.14-116.88 61.7-106.35 82.53-91.14-36.48-55.61-18.52-63.88 1.07-66.5 20.57-63.25-46.72-38.03-26.12-54.3-0.55-60.24-45.58-21.3-31.63-39.1-11.31-49.02-49.02-11.31-39.1-31.63-21.3-45.58-60.24-0.55-54.29-26.12-38.04-46.72-63.25 20.57-66.5 1.07-63.88-18.52-55.61-36.48-91.14 82.53-106.35 61.7-116.88 38.14-122.27 12.9"/><path id="path3498" d="m3404.2 1908v947.87h958.07l13.02-121.08 38.48-115.55 62.16-104.73 83.02-89.11-34.15-54.21-16.42-61.93 2.8-64.01 21.78-60.26-41.93-36.89-21.9-51.37 2.42-55.8-38.82-21.11-25.32-36.22-6.47-43.72-38.94-12.82-28.99-28.99-12.82-38.94-43.72-6.47-36.22-25.32-21.11-38.82-55.8 2.42-51.37-21.89-36.89-41.94-60.26 21.78-64.01 2.8-61.93-16.42-54.21-34.15-89.11 83.02-104.73 62.16-115.55 38.48-121.08 13.02"/><path id="path3500" d="m3404.2 1897.8v958.07h965.6l13.1-120.16 38.71-114.52 62.47-103.49 83.32-87.58-32.48-53.13-14.94-60.45 3.99-62.14 22.55-58.05-38.61-35.91-19.07-49.16 4.28-52.55-34.35-20.66-21.3-33.96-3.65-39.92-32.68-13.09-23.05-26.62-8.29-34.21-34.21-8.29-26.62-23.05-13.09-32.68-39.92-3.65-33.96-21.3-20.66-34.35-52.55 4.28-49.16-19.07-35.91-38.61-58.05 22.55-62.14 3.99-60.45-14.94-53.13-32.47"/><path id="path3502" d="m3829.9 1692.6-87.58 83.31-103.49 62.48-114.52 38.7-120.16 13.1v965.6h971.33l13.16-119.44 38.86-113.71 62.69-102.52 83.51-86.41-31.22-52.28-13.85-59.3 4.83-60.7 23.06-56.36-36.19-35.11-17.08-47.44 5.51-50.13-31.23-20.17-18.59-32.2-1.87-37.13-28.51-12.98-19.27-24.71-5.64-30.82-28.31-8.81-20.97-20.97-8.81-28.31-30.82-5.64-24.71-19.27-12.98-28.51-37.13-1.87-32.19-18.59-20.18-31.23-50.13 5.51"/><path id="path3504" d="m4137.4 1756.7-47.44-17.08-35.11-36.19-56.36 23.06-60.7 4.83-59.3-13.85-52.28-31.22-86.41 83.52-102.52 62.68-113.71 38.86-119.44 13.16v971.33h975.79l13.21-118.86 38.97-113.06 62.84-101.76 83.64-85.47-30.25-51.61-13.02-58.39 5.46-59.57 23.41-55.05-34.39-34.46-15.61-46.1 6.37-48.25-28.95-19.74-16.67-30.82-0.68-35.03-25.61-12.74-16.71-23.21-3.95-28.33-24.4-8.87-17.38-19.29-6.28-25.18-25.18-6.28"/><path id="path3506" d="m4354.8 1873.8-19.29-17.38-8.87-24.4-28.33-3.95-23.21-16.71-12.74-25.61-35.03-0.68-30.82-16.67-19.74-28.95-48.25 6.37-46.1-15.61-34.45-34.39-55.05 23.42-59.58 5.45-58.39-13.02-51.61-30.25-85.47 83.64-101.76 62.84-113.06 38.97-118.86 13.21v975.79h979.34l13.24-118.38 39.06-112.55 62.95-101.13 83.74-84.74-29.5-51.06-12.38-57.66 5.94-58.67 23.67-54.01-32.99-33.91-14.5-45.03 6.98-46.79-27.24-19.35"/><path id="path3508" d="m4502.5 2072.5-15.25-29.72 0.16-33.41-23.49-12.48-14.9-22.04-2.82-26.45-21.66-8.76-14.95-17.95-4.67-22.9-21.46-6.44-15.84-15.84-6.44-21.45-22.89-4.68-17.96-14.95-8.76-21.66-26.45-2.82-22.04-14.9-12.48-23.48-33.41 0.15-29.72-15.25-19.35-27.24-46.79 6.99-45.03-14.51-33.91-32.99-54.01 23.68-58.67 5.93-57.66-12.38-51.06-29.5-84.74 83.74-101.13 62.95-112.55 39.06-118.38 13.24v979.34"/><path id="path3510" d="m3404.2 2855.8h982.22l13.26-118 39.13-112.11 63.03-100.63 83.81-84.13-28.89-50.61-11.88-57.07 6.31-57.94 23.87-53.17-31.89-33.46-13.64-44.16 7.45-45.61-25.92-19.02-14.18-28.85 0.77-32.13-21.89-12.23-13.56-21.1-2.02-24.99-19.67-8.6-13.22-16.91-3.6-21.16-18.86-6.41-13.51-14.63-4.9-19.3-19.3-4.9-14.63-13.51-6.41-18.86-21.16-3.6-16.91-13.22-8.6-19.67-24.99-2.02-21.1-13.56-12.23-21.89"/><path id="path3512" d="m4241.1 1762.4-32.13 0.77-28.85-14.18-19.02-25.92-45.61 7.45-44.16-13.64-33.46-31.89-53.17 23.87-57.94 6.31-57.07-11.87-50.61-28.9-84.13 83.81-100.63 63.03-112.11 39.13-118 13.26v982.22h984.58l13.28-117.67 39.18-111.76 63.1-100.21 83.86-83.63-28.4-50.25-11.46-56.57 6.6-57.34 24.02-52.48-31-33.09-12.97-43.44 7.81-44.67-24.87-18.73-13.34-28.12 1.23-31.11-20.66-12-12.53-20.34"/><path id="path3514" d="m4472.6 1994.4-1.45-23.86-18.17-8.42-11.95-16.07-2.84-19.82-16.96-6.31-11.86-13.67-3.86-17.67-16.81-4.93-12.37-12.37-4.93-16.81-17.67-3.86-13.67-11.86-6.3-16.96-19.83-2.84-16.07-11.95-8.42-18.17-23.86-1.44-20.34-12.54-12-20.66-31.11 1.23-28.12-13.34-18.73-24.87-44.67 7.81-43.44-12.97-33.09-31-52.48 24.02-57.34 6.6-56.57-11.46-50.25-28.4-83.63 83.86-100.21 63.1-111.76 39.18"/><path id="path3516" d="m3521.8 1858-117.67 13.28v984.58h986.54l13.3-117.4 39.22-111.46 63.15-99.86 83.9-83.21-27.99-49.94-11.13-56.16 6.85-56.84 24.13-51.91-30.28-32.77-12.41-42.85 8.09-43.88-24.02-18.49-12.68-27.53 1.58-30.27-19.68-11.81-11.74-19.71-1-22.93-17.01-8.26-10.98-15.39-2.29-18.77-15.53-6.19-10.65-12.89-3.14-16.43-14.98-4.86-10.79-11.47-3.92-15.26-15.26-3.92-11.47-10.79-4.86-14.98"/><path id="path3518" d="m4359.1 1839.6-16.43-3.14-12.89-10.65-6.19-15.53-18.76-2.29-15.4-10.98-8.26-17.01-22.93-1-19.71-11.74-11.81-19.68-30.27 1.58-27.53-12.68-18.49-24.02-43.88 8.09-42.85-12.41-32.77-30.28-51.91 24.13-56.84 6.85-56.16-11.12-49.94-28-83.21 83.9-99.86 63.15-111.46 39.22-117.4 13.3v986.54h988.2l13.3-117.17 39.26-111.2 63.2-99.57 83.91-82.85-27.65-49.68-10.84-55.81 7.04-56.42 24.23-51.44"/><path id="path3520" d="m4584.8 2231.7-29.68-32.5-11.95-42.35 8.3-43.22-23.33-18.28-12.13-27.04 1.85-29.58-18.88-11.63-11.11-19.2-0.66-22.18-16.09-8.11-10.23-14.83-1.87-17.92-14.43-6.06-9.72-12.27-2.6-15.44-13.62-4.77-9.62-10.76-3.21-14.06-13.51-3.89-9.93-9.93-3.89-13.51-14.06-3.21-10.76-9.62-4.77-13.62-15.44-2.6-12.27-9.72-6.06-14.43-17.92-1.87-14.83-10.23-8.11-16.09-22.17-0.66-19.21-11.11"/><path id="path3522" d="m4232.9 1761-11.63-18.88-29.58 1.85-27.04-12.13-18.28-23.33-43.22 8.3-42.35-11.95-32.5-29.68-51.44 24.23-56.42 7.04-55.81-10.84-49.68-27.65-82.85 83.91-99.57 63.2-111.2 39.26-117.17 13.31v988.19"/></g><path id="path3524" d="m3404.2 2855.8-63.79 35.44 14.18-35.44-14.18-35.43 63.79 35.43" fill-rule="evenodd"/><path id="path3526" stroke-linejoin="round" d="m3404.2 2855.8-63.79 35.44 14.18-35.44-14.18-35.43 63.79 35.43" stroke="#000" stroke-linecap="round" stroke-miterlimit="10" stroke-width="7.087" fill="none"/></g></g></g></g></svg>
